<?xml version="1.0" encoding="utf-8"?>
<!-- Generator: Adobe Illustrator 26.0.1, SVG Export Plug-In . SVG Version: 6.00 Build 0)  -->
<svg version="1.1" id="Слой_1" xmlns="http://www.w3.org/2000/svg" xmlns:xlink="http://www.w3.org/1999/xlink" x="0px" y="0px"
	 viewBox="0 0 9969 2454" style="enable-background:new 0 0 9969 2454;" xml:space="preserve">
<style type="text/css">
	.st0{fill:#FFFFFF;stroke:#FFFFFF;stroke-width:25;stroke-miterlimit:10;}
	.st1{fill:#FFF03B;}
</style>
<g>
	<path class="st0" d="M4945.9,1924.54l-40.56,58.72h-57.49v-926.78h115v314.1c10.89-14.92,31.36-28.64,61.41-41.16
		c30.05-12.5,59.61-18.77,88.67-18.77c88.74,0,160.65,30.68,215.72,92.02c55.07,61.35,82.61,138.84,82.61,232.48
		c0,108.18-27.65,193.23-82.91,255.19c-55.27,61.96-130.1,92.93-224.51,92.93c-30.67,0-60.82-5.75-90.48-17.24
		C4983.71,1954.51,4961.21,1940.69,4945.9,1924.54z M4962.85,1458.19v374.5c0,6.46,14.33,17.08,42.99,31.82
		c28.66,14.75,50.46,22.12,65.41,22.12c78.31,0,134.42-18.78,168.33-56.35c33.91-37.57,50.87-100.58,50.87-189.07
		c0-73.52-19.78-130.89-59.34-172.09c-39.56-41.21-92.85-61.82-159.86-61.82c-14.13,0-33.82,6.07-59.06,18.18
		C4986.97,1437.59,4970.53,1448.49,4962.85,1458.19z"/>
	<path class="st0" d="M5890.92,1433.32c-25.07-17.35-50.31-26.03-75.77-26.03c-40.82,0-76.48,18.83-106.98,56.47
		s-45.75,82.97-45.75,135.99v370.95h-115v-648.45h115v104.37c42.02-77.31,104.45-115.97,187.29-115.97
		c20.61,0,50.31,3.62,89.1,10.87L5890.92,1433.32z"/>
	<path class="st0" d="M5978.16,1645.44c0-100.08,26.94-180.91,80.81-242.46s124.8-92.34,212.79-92.34
		c92.82,0,164.86,29.57,216.11,88.7c51.25,59.13,76.89,141.15,76.89,246.1c0,104.54-26.24,186.97-78.7,247.31
		c-52.47,60.34-123.91,90.51-214.3,90.51c-92.43,0-164.47-30.47-216.13-91.42S5978.16,1748.77,5978.16,1645.44z M6098.96,1645.44
		c0,162.72,57.59,244.08,172.8,244.08c53.76,0,95.9-21.8,126.42-65.41c30.52-43.61,45.78-103.16,45.78-178.66
		c0-160.69-57.41-241.06-172.2-241.06c-52.55,0-94.5,21.41-125.81,64.21C6114.62,1511.39,6098.96,1570.34,6098.96,1645.44z"/>
	<path class="st0" d="M7178.98,1375.4l-57.49,81.18c-11.82-11.76-32.72-22.92-62.68-33.46s-59.42-15.82-88.35-15.82
		c-63.19,0-113.34,21.93-150.43,65.76c-37.1,43.84-55.64,103.92-55.64,180.26c0,75.95,18.78,133.83,56.37,173.62
		c37.57,39.8,89.69,59.69,156.38,59.69c51.72,0,103.84-19.96,156.38-59.92l45.47,96.64c-61.79,39.95-138.3,59.92-229.54,59.92
		c-88.43,0-161.51-29.66-219.25-89c-57.74-59.33-86.6-139.64-86.6-240.95c0-103.31,30.18-186.26,90.55-248.82
		c60.37-62.56,142.98-93.85,247.87-93.85c33.73,0,70.32,7.07,109.76,21.19C7131.2,1345.95,7160.27,1360.48,7178.98,1375.4z"/>
	<path class="st0" d="M7699.21,1970.7v-407.28c0-48.41-11.9-86.52-35.67-114.37c-23.78-27.84-57.23-41.77-100.35-41.77
		c-27.81,0-55.72,8.17-83.73,24.51c-28.01,16.34-49.47,35.41-64.37,57.18v481.72h-115v-914.21h115v337.71
		c15.31-23.81,40.02-43.68,74.08-59.63c34.07-15.95,69.23-23.92,105.52-23.92c68.54,0,122.27,22.59,161.16,67.77
		s58.36,106.88,58.36,185.13v407.16H7699.21z"/>
	<path class="st0" d="M8085.86,1322.24v414.04c0,100.23,43.38,150.34,130.18,150.34c37.93,0,72.65-10.9,104.14-32.74
		c31.48-21.82,52.28-47.08,62.36-75.77v-455.87h115v648.45h-115v-89.6c-12.93,25.43-38.85,48.82-77.79,70.15
		c-38.96,21.34-77,32.01-114.13,32.01c-71.03,0-125.42-20.39-163.16-61.19c-37.75-40.8-56.61-98.75-56.61-173.89v-425.94H8085.86z"
		/>
	<path class="st0" d="M9007.38,1433.32c-25.07-17.35-50.31-26.03-75.77-26.03c-40.82,0-76.48,18.83-106.98,56.47
		s-45.75,82.97-45.75,135.99v370.95h-115v-648.45h115v104.37c42.02-77.31,104.45-115.97,187.29-115.97
		c20.61,0,50.31,3.62,89.11,10.87L9007.38,1433.32z"/>
	<path class="st0" d="M9682.78,1658.55h-467.36c0,75.83,20.79,134.1,62.41,174.83c36.75,35.5,84.02,53.24,141.79,53.24
		c65.84,0,120.79-19.33,164.82-57.98l48.47,83.11c-17.76,17.79-45.01,33.13-81.74,46.05c-46.02,16.97-97.3,25.46-153.81,25.46
		c-81.54,0-150.77-27.65-207.67-82.94c-63.39-60.94-95.07-142.88-95.07-245.8c0-106.95,32.46-192.72,97.42-257.3
		c58.07-57.71,126.86-86.57,206.34-86.57c92.37,0,164.77,26.06,217.23,78.19c50.83,50.1,76.24,116.57,76.24,199.41
		C9691.85,1613.7,9688.82,1637.14,9682.78,1658.55z M9403.82,1407.29c-51.33,0-94.36,16.66-129.12,49.97
		c-33.14,31.68-51.94,71.08-56.38,118.19h359.5c0-46.7-14.56-85.69-43.65-116.98C9502.24,1424.35,9458.78,1407.29,9403.82,1407.29z"
		/>
</g>
<polygon class="st1" points="2004,1033.01 3160.5,1651.66 3410.9,2460.82 4224.1,843.41 "/>
</svg>
