<?xml version="1.0" encoding="utf-8"?>
<!-- Generator: Adobe Illustrator 26.0.1, SVG Export Plug-In . SVG Version: 6.00 Build 0)  -->
<svg version="1.1" id="Слой_1" xmlns="http://www.w3.org/2000/svg" xmlns:xlink="http://www.w3.org/1999/xlink" x="0px" y="0px"
	 viewBox="0 0 6310 1329.1" style="enable-background:new 0 0 6310 1329.1;" xml:space="preserve">
<style type="text/css">
	.st0{fill:#FFFFFF;stroke:#FFFFFF;stroke-width:20.5437;stroke-miterlimit:8.2175;}
	.st1{fill:#FFF03B;}
</style>
<g>
	<path class="st0" d="M2417.5,888.4l-33.3,48.3h-47.2V175.1h94.5v258.1c8.9-12.3,25.8-23.5,50.5-33.8c24.7-10.3,49-15.4,72.9-15.4
		c72.9,0,132,25.2,177.3,75.6c45.3,50.4,67.9,114.1,67.9,191c0,88.9-22.7,158.8-68.1,209.7c-45.4,50.9-106.9,76.4-184.5,76.4
		c-25.2,0-50-4.7-74.4-14.2C2448.6,913,2430.1,901.7,2417.5,888.4z M2431.4,505.2v307.7c0,5.3,11.8,14,35.3,26.1
		c23.6,12.1,41.5,18.2,53.8,18.2c64.4,0,110.5-15.4,138.3-46.3c27.9-30.9,41.8-82.7,41.8-155.4c0-60.4-16.3-107.6-48.8-141.4
		c-32.5-33.9-76.3-50.8-131.4-50.8c-11.6,0-27.8,5-48.5,14.9C2451.2,488.3,2437.7,497.2,2431.4,505.2z"/>
	<path class="st0" d="M3194.1,484.8c-20.6-14.3-41.3-21.4-62.3-21.4c-33.5,0-62.8,15.5-87.9,46.4s-37.6,68.2-37.6,111.7v304.8h-94.5
		V393.5h94.5v85.8c34.5-63.5,85.8-95.3,153.9-95.3c16.9,0,41.3,3,73.2,8.9L3194.1,484.8z"/>
	<path class="st0" d="M3265.8,659.1c0-82.2,22.1-148.7,66.4-199.2s102.6-75.9,174.9-75.9c76.3,0,135.5,24.3,177.6,72.9
		s63.2,116,63.2,202.2c0,85.9-21.6,153.6-64.7,203.2c-43.1,49.6-101.8,74.4-176.1,74.4c-76,0-135.2-25-177.6-75.1
		C3287,811.5,3265.8,744,3265.8,659.1z M3365,659.1c0,133.7,47.3,200.6,142,200.6c44.2,0,78.8-17.9,103.9-53.8
		c25.1-35.8,37.6-84.8,37.6-146.8c0-132-47.2-198.1-141.5-198.1c-43.2,0-77.7,17.6-103.4,52.8C3377.9,548.9,3365,597.4,3365,659.1z"
		/>
	<path class="st0" d="M4252.5,437.2l-47.2,66.7c-9.7-9.7-26.9-18.8-51.5-27.5c-24.6-8.7-48.8-13-72.6-13c-51.9,0-93.1,18-123.6,54
		c-30.5,36-45.7,85.4-45.7,148.1c0,62.4,15.4,110,46.3,142.7c30.9,32.7,73.7,49.1,128.5,49.1c42.5,0,85.3-16.4,128.5-49.2l37.4,79.4
		c-50.8,32.8-113.6,49.2-188.6,49.2c-72.7,0-132.7-24.4-180.2-73.1c-47.4-48.8-71.2-114.7-71.2-198c0-84.9,24.8-153.1,74.4-204.5
		c49.6-51.4,117.5-77.1,203.7-77.1c27.7,0,57.8,5.8,90.2,17.4C4213.3,413,4237.2,424.9,4252.5,437.2z"/>
	<path class="st0" d="M4680,926.3V591.7c0-39.8-9.8-71.1-29.3-94c-19.5-22.9-47-34.3-82.5-34.3c-22.9,0-45.8,6.7-68.8,20.1
		c-23,13.4-40.7,29.1-52.9,47v395.9H4352V175.1h94.5v277.5c12.6-19.6,32.9-35.9,60.9-49c28-13.1,56.9-19.7,86.7-19.7
		c56.3,0,100.5,18.6,132.4,55.7c32,37.1,48,87.8,48,152.1v334.6H4680z"/>
	<path class="st0" d="M4997.8,393.5v340.2c0,82.4,35.6,123.5,107,123.5c31.2,0,59.7-9,85.6-26.9c25.9-17.9,43-38.7,51.2-62.3V393.5
		h94.5v532.9h-94.5v-73.6c-10.6,20.9-31.9,40.1-63.9,57.6c-32,17.5-63.3,26.3-93.8,26.3c-58.4,0-103.1-16.8-134.1-50.3
		c-31-33.5-46.5-81.1-46.5-142.9v-350L4997.8,393.5L4997.8,393.5z"/>
	<path class="st0" d="M5755,484.8c-20.6-14.3-41.3-21.4-62.3-21.4c-33.5,0-62.8,15.5-87.9,46.4s-37.6,68.2-37.6,111.7v304.8h-94.5
		V393.5h94.5v85.8c34.5-63.5,85.8-95.3,153.9-95.3c16.9,0,41.3,3,73.2,8.9L5755,484.8z"/>
	<path class="st0" d="M6310,669.8H5926c0,62.3,17.1,110.2,51.3,143.7c30.2,29.2,69,43.7,116.5,43.7c54.1,0,99.3-15.9,135.4-47.6
		l39.8,68.3c-14.6,14.6-37,27.2-67.2,37.8c-37.8,13.9-80,20.9-126.4,20.9c-67,0-123.9-22.7-170.7-68.2
		c-52.1-50.1-78.1-117.4-78.1-202c0-87.9,26.7-158.4,80.1-211.4c47.7-47.4,104.2-71.1,169.6-71.1c75.9,0,135.4,21.4,178.5,64.3
		c41.8,41.2,62.6,95.8,62.6,163.9C6317.5,633,6315,652.2,6310,669.8z M6080.8,463.4c-42.2,0-77.5,13.7-106.1,41.1
		c-27.2,26-42.7,58.4-46.3,97.1h295.4c0-38.4-12-70.4-35.9-96.1C6161.7,477.4,6125.9,463.4,6080.8,463.4z"/>
</g>
<polygon class="st1" points="0,156.3 950.4,664.7 1156.1,1329.6 1824.4,0.5 "/>
</svg>
