<?xml version="1.0" encoding="utf-8"?>
<!-- Generator: Adobe Illustrator 26.0.1, SVG Export Plug-In . SVG Version: 6.00 Build 0)  -->
<svg version="1.1" id="Слой_1" xmlns="http://www.w3.org/2000/svg" xmlns:xlink="http://www.w3.org/1999/xlink" x="0px" y="0px"
	 viewBox="0 0 8192 2454" style="enable-background:new 0 0 8192 2454;" xml:space="preserve">
<style type="text/css">
	.st0{fill:#FFF03B;}
	.st1{fill:#FFFFFF;}
</style>
<polygon class="st0" points="1646.8,1067.6 2597.1,1576 2802.9,2240.9 3471.1,911.8 "/>
<g>
	<path class="st1" d="M3973.2,1833.9v-715h100.3v715H3973.2z M4201.8,1841.2c-31.8,0-59.5-7.6-83.1-22.9
		c-23.6-15.2-41-36.8-52.1-64.7l6.9-106.7c0,22,3.9,40.7,11.8,56.1s19.3,27.2,34.2,35.4c14.9,8.2,33,12.3,54.3,12.3
		c33.1,0,58.8-10.1,77-30.2c18.2-20.2,27.3-48.6,27.3-85.3v-110.6c0-37.4-9.1-66.4-27.3-87c-18.2-20.7-43.9-31-77-31
		c-21.3,0-39.4,3.9-54.3,11.8c-14.9,7.9-26.3,19.3-34.2,34.4s-11.8,33.4-11.8,55.1l-10.3-98.3c15.4-29.8,35.6-52.9,60.5-69.1
		c24.9-16.2,52.6-24.3,83.1-24.3c54.8,0,97,18.1,126.9,54.3c29.8,36.2,44.8,87.5,44.8,153.7v111.1c0,65.2-15.4,115.9-46.2,152
		S4257.9,1841.2,4201.8,1841.2z"/>
	<path class="st1" d="M4521,1833.9v-510.5h100.3v510.5H4521z M4801.8,1444.4c-8.9-10.8-20-19-33.5-24.6c-13.4-5.6-29-8.4-46.7-8.4
		c-31.8,0-56.5,8.8-74,26.3c-17.5,17.5-26.3,41.9-26.3,73l-10.3-98.3c15.4-30.2,35.6-53.8,60.7-70.8c25.1-17,52.7-25.6,82.9-25.6
		c23.3,0,44.3,3.4,63.2,10.1s35.3,16.6,49.4,29.8L4801.8,1444.4z"/>
	<path class="st1" d="M5136.7,1841.2c-66.9,0-118.7-19.4-155.4-58.3s-55.1-93.5-55.1-164v-83.1c0-69.8,18.4-123.9,55.1-162.3
		s88.5-57.5,155.4-57.5c66.9,0,118.7,19.2,155.4,57.5s55.1,92.5,55.1,162.3v84.6c0,70.2-18.4,124.5-55.1,163
		C5255.4,1822,5203.6,1841.2,5136.7,1841.2z M5136.7,1745.8c35.1,0,62.2-11,81.4-32.9s28.8-52.8,28.8-92.5v-84.6
		c0-39.7-9.6-70.3-28.8-92c-19.2-21.6-46.3-32.5-81.4-32.5c-34.8,0-61.8,10.8-81.1,32.5c-19.3,21.6-29,52.3-29,92v84.6
		c0,39.7,9.7,70.5,29,92.5S5101.9,1745.8,5136.7,1745.8z"/>
	<path class="st1" d="M5695.8,1841.2c-70.2,0-124.5-19.3-163-58s-57.8-93.3-57.8-163.8v-84.1c0-69.8,19.2-123.8,57.8-162
		s92.9-57.3,163-57.3c40,0,76,7.1,108.2,21.2s57.7,34.3,76.7,60.5l-72.3,64.9c-14.1-16.4-30.8-29-50.2-37.9s-39.7-13.3-61-13.3
		c-38.7,0-68.7,10.8-90,32.5c-21.3,21.6-32,52.1-32,91.5v84.1c0,40.3,10.6,71.5,32,93.4s51.3,32.9,90,32.9c21.3,0,41.6-4.8,61-14.2
		s36.1-23,50.2-40.3l72.3,69.8c-19,25.6-44.7,45.3-77,59.3C5771.5,1834.3,5735.5,1841.2,5695.8,1841.2z"/>
	<path class="st1" d="M5991.4,1833.9v-715h100.3v715H5991.4z M6301.2,1833.9v-309.3c0-36.1-9.3-63.9-27.8-83.6s-44.8-29.5-78.9-29.5
		c-32.8,0-58.1,8.5-76,25.6s-26.8,41.1-26.8,72.3l-10.3-98.4c15.7-30.2,36.3-53.5,61.7-70.1s53.5-24.8,84.3-24.8
		c55.4,0,98.3,18.1,128.6,54.3c30.3,36.2,45.5,87.5,45.5,153.7v309.8H6301.2z"/>
	<path class="st1" d="M6654.3,1323.4v310.3c0,35.7,9.1,63.4,27.3,82.9c18.2,19.5,43.8,29.2,77,29.2s58.6-8.8,76.5-26.3
		s26.8-42.2,26.8-74l6.9,106.7c-9.2,23-25.2,43.5-48.2,61.7c-23,18.2-53,27.3-90,27.3c-56.4,0-99.9-18.1-130.6-54.3
		s-46-87.3-46-153.2v-310.3H6654.3z M6861.8,1833.9v-510.5h99.8v510.5H6861.8z"/>
	<path class="st1" d="M7114.1,1833.9v-510.5h100.3v510.5H7114.1z M7394.9,1444.4c-8.9-10.8-20-19-33.5-24.6
		c-13.4-5.6-29-8.4-46.7-8.4c-31.8,0-56.5,8.8-74,26.3c-17.5,17.5-26.3,41.9-26.3,73l-10.3-98.3c15.4-30.2,35.6-53.8,60.7-70.8
		c25.1-17,52.7-25.6,82.9-25.6c23.3,0,44.3,3.4,63.2,10.1s35.3,16.6,49.4,29.8L7394.9,1444.4z"/>
	<path class="st1" d="M7743,1841.2c-71.2,0-126.2-19.8-165.2-59.5c-39-39.7-58.5-96-58.5-169.2V1555c0-76.1,18.8-134.9,56.3-176.5
		c37.5-41.6,90.4-62.5,158.6-62.5c64.2,0,114,23.6,149.2,70.8c35.2,47.2,52.9,113.4,52.9,198.7v33.4h-344.2v-80.6h248.8
		c-3-41.3-13.7-73.6-32.2-96.9c-18.5-23.3-43.4-34.9-74.5-34.9c-37.7,0-67,12.5-88,37.4c-21,24.9-31.5,60.2-31.5,105.7v64.9
		c0,42.3,11.2,74.8,33.7,97.4c22.5,22.6,54,33.9,94.7,33.9c20.3,0,40.5-4.1,60.5-12.3s37.9-19.7,53.6-34.4l65.9,65.9
		c-25.2,24.3-53.6,43-85.1,56.3C7806.5,1834.6,7774.8,1841.2,7743,1841.2z"/>
</g>
</svg>
