<?xml version="1.0" encoding="utf-8"?>
<!-- Generator: Adobe Illustrator 26.0.1, SVG Export Plug-In . SVG Version: 6.00 Build 0)  -->
<svg version="1.1" id="Слой_1" xmlns="http://www.w3.org/2000/svg" xmlns:xlink="http://www.w3.org/1999/xlink" x="0px" y="0px"
	 viewBox="0 0 6289.5 1329.1" style="enable-background:new 0 0 6289.5 1329.1;" xml:space="preserve">
<style type="text/css">
	.st0{fill:#FFF03B;}
	.st1{fill:#FFFFFF;}
</style>
<polygon class="st0" points="0,155.8 950.3,664.2 1156.1,1329.1 1824.3,0 "/>
<g>
	<path class="st1" d="M2326.4,922.1v-715h100.3v715H2326.4z M2555,929.4c-31.8,0-59.5-7.6-83.1-22.9c-23.6-15.2-41-36.8-52.1-64.7
		l6.9-106.7c0,22,3.9,40.7,11.8,56.1s19.3,27.2,34.2,35.4c14.9,8.2,33,12.3,54.3,12.3c33.1,0,58.8-10.1,77-30.2
		c18.2-20.2,27.3-48.6,27.3-85.3V612.8c0-37.4-9.1-66.4-27.3-87c-18.2-20.7-43.9-31-77-31c-21.3,0-39.4,3.9-54.3,11.8
		s-26.3,19.3-34.2,34.4s-11.8,33.4-11.8,55.1l-10.3-98.3c15.4-29.8,35.6-52.9,60.5-69.1s52.6-24.3,83.1-24.3
		c54.8,0,97,18.1,126.9,54.3c29.8,36.2,44.8,87.5,44.8,153.7v111.1c0,65.2-15.4,115.9-46.2,152S2611.1,929.4,2555,929.4z"/>
	<path class="st1" d="M2874.2,922.1V411.6h100.3v510.5H2874.2z M3155,532.6c-8.9-10.8-20-19-33.5-24.6c-13.4-5.6-29-8.4-46.7-8.4
		c-31.8,0-56.5,8.8-74,26.3s-26.3,41.9-26.3,73l-10.3-98.3c15.4-30.2,35.6-53.8,60.7-70.8s52.7-25.6,82.9-25.6
		c23.3,0,44.3,3.4,63.2,10.1s35.3,16.6,49.4,29.8L3155,532.6z"/>
	<path class="st1" d="M3489.9,929.4c-66.9,0-118.7-19.4-155.4-58.3s-55.1-93.5-55.1-164V624c0-69.8,18.4-123.9,55.1-162.3
		s88.5-57.5,155.4-57.5s118.7,19.2,155.4,57.5s55.1,92.5,55.1,162.3v84.6c0,70.2-18.4,124.5-55.1,163
		C3608.6,910.2,3556.8,929.4,3489.9,929.4z M3489.9,834c35.1,0,62.2-11,81.4-32.9s28.8-52.8,28.8-92.5V624c0-39.7-9.6-70.3-28.8-92
		c-19.2-21.6-46.3-32.5-81.4-32.5c-34.8,0-61.8,10.8-81.1,32.5c-19.3,21.6-29,52.3-29,92v84.6c0,39.7,9.7,70.5,29,92.5
		S3455.1,834,3489.9,834z"/>
	<path class="st1" d="M4049,929.4c-70.2,0-124.5-19.3-163-58s-57.8-93.3-57.8-163.8v-84.1c0-69.8,19.2-123.8,57.8-162
		s92.9-57.3,163-57.3c40,0,76,7.1,108.2,21.2s57.7,34.3,76.7,60.5l-72.3,64.9c-14.1-16.4-30.8-29-50.2-37.9
		c-19.4-8.9-39.7-13.3-61-13.3c-38.7,0-68.7,10.8-90,32.5c-21.3,21.6-32,52.1-32,91.5v84.1c0,40.3,10.6,71.5,32,93.4
		s51.3,32.9,90,32.9c21.3,0,41.6-4.8,61-14.2c19.4-9.4,36.1-23,50.2-40.3l72.3,69.8c-19,25.6-44.7,45.3-77,59.3
		C4124.7,922.5,4088.7,929.4,4049,929.4z"/>
	<path class="st1" d="M4344.6,922.1v-715h100.3v715H4344.6z M4654.4,922.1V612.8c0-36.1-9.3-63.9-27.8-83.6s-44.8-29.5-78.9-29.5
		c-32.8,0-58.1,8.5-76,25.6c-17.9,17.1-26.8,41.1-26.8,72.3l-10.3-98.4c15.7-30.2,36.3-53.5,61.7-70.1s53.5-24.8,84.3-24.8
		c55.4,0,98.3,18.1,128.6,54.3c30.3,36.2,45.5,87.5,45.5,153.7v309.8L4654.4,922.1L4654.4,922.1z"/>
	<path class="st1" d="M5007.5,411.6v310.3c0,35.7,9.1,63.4,27.3,82.9s43.8,29.2,77,29.2s58.6-8.8,76.5-26.3
		c17.9-17.5,26.8-42.2,26.8-74l6.9,106.7c-9.2,23-25.2,43.5-48.2,61.7s-53,27.3-90,27.3c-56.4,0-99.9-18.1-130.6-54.3
		s-46-87.3-46-153.2V411.6L5007.5,411.6L5007.5,411.6z M5215,922.1V411.6h99.8v510.5H5215z"/>
	<path class="st1" d="M5467.3,922.1V411.6h100.3v510.5H5467.3z M5748.1,532.6c-8.9-10.8-20-19-33.5-24.6c-13.4-5.6-29-8.4-46.7-8.4
		c-31.8,0-56.5,8.8-74,26.3s-26.3,41.9-26.3,73l-10.3-98.3c15.4-30.2,35.6-53.8,60.7-70.8c25.1-17,52.7-25.6,82.9-25.6
		c23.3,0,44.3,3.4,63.2,10.1s35.3,16.6,49.4,29.8L5748.1,532.6z"/>
	<path class="st1" d="M6096.2,929.4c-71.2,0-126.2-19.8-165.2-59.5s-58.5-96-58.5-169.2v-57.5c0-76.1,18.8-134.9,56.3-176.5
		s90.4-62.5,158.6-62.5c64.2,0,114,23.6,149.2,70.8c35.2,47.2,52.9,113.4,52.9,198.7v33.4h-344.2v-80.6h248.8
		c-3-41.3-13.7-73.6-32.2-96.9s-43.4-34.9-74.5-34.9c-37.7,0-67,12.5-88,37.4s-31.5,60.2-31.5,105.7v64.9
		c0,42.3,11.2,74.8,33.7,97.4s54,33.9,94.7,33.9c20.3,0,40.5-4.1,60.5-12.3s37.9-19.7,53.6-34.4l65.9,65.9
		c-25.2,24.3-53.6,43-85.1,56.3C6159.7,922.8,6128,929.4,6096.2,929.4z"/>
</g>
</svg>
