<?xml version="1.0" encoding="utf-8"?>
<!-- Generator: Adobe Illustrator 26.0.1, SVG Export Plug-In . SVG Version: 6.00 Build 0)  -->
<svg version="1.1" id="Слой_1" xmlns="http://www.w3.org/2000/svg" xmlns:xlink="http://www.w3.org/1999/xlink" x="0px" y="0px"
	 viewBox="0 0 1892 380" style="enable-background:new 0 0 1892 380;" xml:space="preserve">
<style type="text/css">
	.st0{fill:#FFFAC3;}
	.st1{fill:#FFF03B;}
</style>
<g>
	<polygon class="st0" points="39.56,317.15 32.52,303.08 27.25,303.08 27.25,328.74 32.59,328.74 32.59,313.32 37.81,323.75 
		41.32,323.75 46.53,313.32 46.53,328.74 51.87,328.74 51.87,303.08 46.61,303.08 	"/>
	<polygon class="st0" points="65.03,319.56 65.03,303.08 59.29,303.08 59.29,328.72 64.41,328.72 75.17,312.64 75.17,328.72 
		80.9,328.72 80.9,303.08 75.83,303.08 	"/>
	<path class="st0" d="M103.45,303.08h-7.37h-2.3H90.4v14.81c0,1.71-0.33,3.05-1,3.99c-0.67,0.95-1.6,1.42-2.81,1.42v5.66h0.49
		c2.87,0,5.08-0.91,6.65-2.72c1.57-1.81,2.35-4.37,2.35-7.66v-9.84h7.37v20h5.91v-25.66h-2.62H103.45z"/>
	<path class="st0" d="M131.91,303.08h-7.37h-2.3h-3.39v14.81c0,1.71-0.33,3.05-1,3.99c-0.67,0.95-1.6,1.42-2.81,1.42v5.66h0.49
		c2.87,0,5.08-0.91,6.65-2.72c1.57-1.81,2.35-4.37,2.35-7.66v-9.84h7.37v20h5.91v-25.66h-2.62H131.91z"/>
	<polygon class="st0" points="150.97,319.56 150.97,303.08 145.24,303.08 145.24,328.72 150.36,328.72 161.11,312.64 161.11,328.72 
		166.85,328.72 166.85,303.08 161.78,303.08 	"/>
	<path class="st0" d="M184.35,302.71c-3.45,0-6.11,0.96-8,2.89c-1.89,1.93-2.83,4.65-2.83,8.16v4.18c0,3.54,0.94,6.29,2.83,8.25
		c1.89,1.95,4.55,2.93,8,2.93c3.44,0,6.11-0.97,8-2.91c1.89-1.94,2.83-4.67,2.83-8.2v-4.25c0-3.51-0.94-6.23-2.83-8.16
		C190.46,303.67,187.8,302.71,184.35,302.71z M189.27,318.01c0,1.71-0.43,3.05-1.29,4.01c-0.86,0.96-2.07,1.43-3.63,1.43
		c-1.55,0-2.76-0.48-3.62-1.43c-0.87-0.96-1.3-2.29-1.3-4.01v-4.25c0-1.71,0.43-3.04,1.3-3.98c0.87-0.94,2.07-1.41,3.62-1.41
		c1.57,0,2.78,0.47,3.63,1.41c0.86,0.94,1.29,2.27,1.29,3.98V318.01z"/>
	<polygon class="st0" points="217.71,313.44 207.77,313.44 207.77,303.08 201.86,303.08 201.86,328.74 207.77,328.74 207.77,318.83 
		217.71,318.83 217.71,328.74 223.62,328.74 223.62,303.08 217.71,303.08 	"/>
	<rect x="253.61" y="303.08" class="st0" width="5.88" height="25.66"/>
	<path class="st0" d="M241.34,311.36h-4.4v-8.28h-5.91v25.66h2.08h3.83h4.4c2.7,0,4.87-0.8,6.5-2.39c1.63-1.59,2.45-3.69,2.45-6.29
		c-0.02-2.62-0.84-4.73-2.47-6.32C246.19,312.16,244.03,311.36,241.34,311.36z M243.5,322.2c-0.54,0.59-1.28,0.88-2.2,0.88h-4.35
		v-6.43h4.35c0.91,0,1.64,0.3,2.19,0.89c0.55,0.59,0.83,1.38,0.83,2.35C244.31,320.85,244.04,321.62,243.5,322.2z"/>
	<path class="st0" d="M289.51,302.71c-1.99,0-3.81,0.33-5.44,0.98c-1.63,0.65-2.95,1.56-3.96,2.73l3.93,3.31
		c0.76-0.58,1.62-1.02,2.57-1.32c0.96-0.3,1.93-0.46,2.92-0.46c1.55,0,2.75,0.4,3.6,1.19c0.85,0.79,1.27,1.9,1.27,3.34v1.09h-6.65
		c-2.97,0-5.19,0.63-6.68,1.89s-2.23,3.17-2.23,5.72c0,2.69,0.74,4.68,2.21,5.98c1.48,1.3,3.68,1.95,6.61,1.95
		c1.14,0,2.2-0.13,3.19-0.4c0.99-0.26,1.84-0.66,2.56-1.2c0.39-0.29,0.71-0.64,0.98-1.02v2.25h5.46v-16.49
		c0-3.03-0.9-5.38-2.71-7.05C295.36,303.54,292.81,302.71,289.51,302.71z M293.02,323.72c-0.92,0.41-2.32,0.62-4.18,0.62
		c-1.53,0-2.68-0.26-3.44-0.78c-0.76-0.52-1.14-1.31-1.14-2.39c0-1.02,0.29-1.78,0.88-2.27c0.59-0.49,1.46-0.74,2.63-0.74h6.63v3.63
		C294.4,322.67,293.94,323.31,293.02,323.72z"/>
	<path class="st0" d="M322.17,303.08h-7.37h-2.3h-3.39v14.81c0,1.71-0.33,3.05-1,3.99c-0.67,0.95-1.6,1.42-2.81,1.42v5.66h0.49
		c2.87,0,5.08-0.91,6.65-2.72c1.57-1.81,2.35-4.37,2.35-7.66v-9.84h7.37v20h5.91v-25.66h-2.62H322.17z"/>
	<path class="st0" d="M347.29,311.36h-5.88v-8.28h-5.91v25.66h2.94h2.97h5.88c2.7,0,4.87-0.8,6.5-2.39
		c1.63-1.59,2.45-3.69,2.45-6.29c-0.02-2.62-0.84-4.73-2.47-6.32C352.14,312.16,349.98,311.36,347.29,311.36z M349.44,322.2
		c-0.54,0.59-1.28,0.88-2.2,0.88h-5.84v-6.43h5.84c0.91,0,1.64,0.3,2.19,0.89c0.55,0.59,0.83,1.38,0.83,2.35
		C350.26,320.85,349.99,321.62,349.44,322.2z"/>
	<path class="st0" d="M374.24,303.7c-2.13,0-3.81,0.49-5.06,1.48c-0.48,0.38-0.87,0.85-1.22,1.36v-0.94c0-1.95,0.48-3.38,1.43-4.29
		c0.96-0.91,2.45-1.37,4.48-1.37c3.03,0,5.27-0.58,6.7-1.73s2.15-2.96,2.15-5.41h-5.79c0,0.71-0.28,1.24-0.84,1.58
		c-0.56,0.35-1.44,0.53-2.65,0.54c-3.81,0.03-6.62,0.91-8.43,2.62c-1.81,1.71-2.72,4.4-2.72,8.06v8.41v1.04v2.89
		c0,3.54,0.94,6.29,2.83,8.25c1.89,1.95,4.55,2.93,8,2.93c3.44,0,6.11-0.97,8-2.91c1.89-1.94,2.83-4.67,2.83-8.2v-3.26
		c0-3.51-0.85-6.23-2.55-8.16C379.71,304.66,377.32,303.7,374.24,303.7z M378.05,318.01c0,1.73-0.43,3.07-1.3,4.02
		c-0.87,0.95-2.08,1.42-3.65,1.42c-1.55,0-2.75-0.47-3.61-1.42c-0.86-0.95-1.29-2.29-1.29-4.02v-3.26c0-1.71,0.43-3.04,1.29-3.98
		c0.86-0.94,2.06-1.41,3.61-1.41c1.57,0,2.78,0.47,3.65,1.41c0.87,0.94,1.3,2.27,1.3,3.98V318.01z"/>
	<path class="st0" d="M400.72,302.71c-3.45,0-6.11,0.96-8,2.89c-1.89,1.93-2.83,4.65-2.83,8.16v4.18c0,3.54,0.94,6.29,2.83,8.25
		c1.89,1.95,4.55,2.93,8,2.93c3.44,0,6.11-0.97,8-2.91c1.89-1.94,2.83-4.67,2.83-8.2v-4.25c0-3.51-0.94-6.23-2.83-8.16
		C406.83,303.67,404.17,302.71,400.72,302.71z M405.64,318.01c0,1.71-0.43,3.05-1.29,4.01c-0.86,0.96-2.07,1.43-3.63,1.43
		c-1.55,0-2.76-0.48-3.62-1.43c-0.87-0.96-1.3-2.29-1.3-4.01v-4.25c0-1.71,0.43-3.04,1.3-3.98c0.87-0.94,2.07-1.41,3.62-1.41
		c1.57,0,2.78,0.47,3.63,1.41c0.86,0.94,1.29,2.27,1.29,3.98V318.01z"/>
	<polygon class="st0" points="430.54,317.15 423.49,303.08 418.23,303.08 418.23,328.74 423.57,328.74 423.57,313.32 428.79,323.75 
		432.3,323.75 437.51,313.32 437.51,328.74 442.85,328.74 442.85,303.08 437.59,303.08 	"/>
	<path class="st0" d="M460.36,302.71c-3.45,0-6.11,0.96-8,2.89c-1.89,1.93-2.83,4.65-2.83,8.16v4.18c0,3.54,0.94,6.29,2.83,8.25
		c1.89,1.95,4.55,2.93,8,2.93c3.44,0,6.11-0.97,8-2.91c1.89-1.94,2.83-4.67,2.83-8.2v-4.25c0-3.51-0.94-6.23-2.83-8.16
		C466.47,303.67,463.8,302.71,460.36,302.71z M465.28,318.01c0,1.71-0.43,3.05-1.29,4.01c-0.86,0.96-2.07,1.43-3.63,1.43
		c-1.55,0-2.76-0.48-3.62-1.43c-0.87-0.96-1.3-2.29-1.3-4.01v-4.25c0-1.71,0.43-3.04,1.3-3.98c0.87-0.94,2.07-1.41,3.62-1.41
		c1.57,0,2.78,0.47,3.63,1.41c0.86,0.94,1.29,2.27,1.29,3.98V318.01z"/>
	<path class="st0" d="M493.39,315.27c1.65-0.28,2.93-0.93,3.83-1.95c0.91-1.02,1.36-2.31,1.36-3.86c0-2.03-0.68-3.6-2.04-4.71
		c-1.36-1.11-3.28-1.67-5.75-1.67h-7.05h-2.67h-3.21v25.66h3.21h2.67h6.97c2.65,0,4.71-0.57,6.16-1.72
		c1.45-1.15,2.18-2.76,2.18-4.86v-0.07c0-1.8-0.49-3.29-1.48-4.49C496.58,316.41,495.19,315.63,493.39,315.27z M490.01,308
		c1.75,0,2.62,0.83,2.62,2.5c0,1.57-0.89,2.35-2.67,2.35h-6.21V308H490.01z M493.1,320.86c0,0.92-0.27,1.65-0.82,2.18
		c-0.54,0.53-1.32,0.79-2.32,0.79h-6.21v-6.06h6.21c1.01,0,1.78,0.26,2.32,0.79c0.54,0.53,0.82,1.27,0.82,2.23V320.86z"/>
	<polygon class="st0" points="501.03,335.57 506.65,335.57 523.04,288.54 517.43,288.54 	"/>
	<polygon class="st0" points="523.16,308.62 530.43,308.62 530.43,328.74 536.32,328.74 536.32,308.62 543.59,308.62 543.59,303.08 
		523.16,303.08 	"/>
	<path class="st0" d="M562.01,302.71c-1.45,0-2.77,0.41-3.96,1.22c-0.93,0.64-1.72,1.49-2.37,2.55v-3.41h-5.91v36.1h5.91v-13.72
		c0.53,1.04,1.25,1.89,2.18,2.51c1.14,0.77,2.48,1.15,4.03,1.15c2.79,0,4.94-0.94,6.47-2.81c1.52-1.87,2.29-4.51,2.29-7.92v-4.85
		c0-3.44-0.75-6.11-2.25-8C566.88,303.65,564.76,302.71,562.01,302.71z M564.73,318.38c0,1.68-0.4,2.99-1.21,3.92
		c-0.81,0.93-1.95,1.4-3.41,1.4c-0.94,0-1.74-0.18-2.4-0.54c-0.66-0.36-1.16-0.89-1.51-1.57c-0.35-0.68-0.52-1.51-0.52-2.48v-6.38
		c0-0.99,0.17-1.83,0.52-2.51c0.35-0.68,0.85-1.2,1.51-1.56c0.66-0.35,1.46-0.53,2.4-0.53c1.47,0,2.6,0.47,3.41,1.42
		c0.81,0.95,1.21,2.29,1.21,4.02V318.38z"/>
	<path class="st0" d="M587.62,302.71c-3.51,0-6.23,1.05-8.16,3.14c-1.93,2.09-2.89,5.05-2.89,8.88v2.89c0,3.68,1.01,6.51,3.02,8.51
		c2.01,1.99,4.84,2.99,8.48,2.99c1.65,0,3.28-0.33,4.91-1c1.62-0.67,3.09-1.61,4.39-2.83l-3.86-3.61c-0.76,0.66-1.61,1.17-2.56,1.54
		c-0.95,0.37-1.91,0.56-2.88,0.56c-1.91,0-3.4-0.52-4.45-1.57c-0.94-0.93-1.44-2.24-1.54-3.89h15.95v-1.68
		c0-4.42-0.91-7.84-2.72-10.27C593.5,303.92,590.93,302.71,587.62,302.71z M582.06,313.98c0.07-1.81,0.54-3.24,1.44-4.27
		c0.98-1.11,2.35-1.67,4.12-1.67c1.42,0,2.55,0.5,3.39,1.5c0.84,1,1.34,2.39,1.51,4.17l0.02,0.27H582.06z"/>
	<polygon class="st0" points="625.55,303.08 618.97,303.08 613.73,313.07 610.37,313.07 610.37,303.08 604.46,303.08 604.46,328.74 
		610.37,328.74 610.37,318.71 613.81,318.71 619.81,328.74 627.06,328.74 618.52,315.54 	"/>
	<path class="st0" d="M639.87,302.71c-3.45,0-6.11,0.96-8,2.89c-1.89,1.93-2.83,4.65-2.83,8.16v4.18c0,3.54,0.94,6.29,2.83,8.25
		c1.89,1.95,4.55,2.93,8,2.93c3.44,0,6.11-0.97,8-2.91c1.89-1.94,2.83-4.67,2.83-8.2v-4.25c0-3.51-0.94-6.23-2.83-8.16
		C645.98,303.67,643.31,302.71,639.87,302.71z M644.79,318.01c0,1.71-0.43,3.05-1.29,4.01c-0.86,0.96-2.07,1.43-3.63,1.43
		c-1.55,0-2.76-0.48-3.62-1.43c-0.87-0.96-1.3-2.29-1.3-4.01v-4.25c0-1.71,0.43-3.04,1.3-3.98c0.87-0.94,2.07-1.41,3.62-1.41
		c1.57,0,2.78,0.47,3.63,1.41c0.86,0.94,1.29,2.27,1.29,3.98V318.01z"/>
	<path class="st0" d="M672.9,315.27c1.65-0.28,2.93-0.93,3.83-1.95c0.91-1.02,1.36-2.31,1.36-3.86c0-2.03-0.68-3.6-2.04-4.71
		c-1.36-1.11-3.28-1.67-5.75-1.67h-7.05h-2.67h-3.21v25.66h3.21h2.67h6.97c2.65,0,4.71-0.57,6.16-1.72
		c1.45-1.15,2.18-2.76,2.18-4.86v-0.07c0-1.8-0.49-3.29-1.48-4.49C676.09,316.41,674.69,315.63,672.9,315.27z M669.51,308
		c1.75,0,2.62,0.83,2.62,2.5c0,1.57-0.89,2.35-2.67,2.35h-6.21V308H669.51z M672.6,320.86c0,0.92-0.27,1.65-0.82,2.18
		c-0.54,0.53-1.32,0.79-2.32,0.79h-6.21v-6.06h6.21c1.01,0,1.78,0.26,2.32,0.79s0.82,1.27,0.82,2.23V320.86z"/>
	<polygon class="st0" points="714.19,313.44 704.25,313.44 704.25,303.08 698.34,303.08 698.34,328.74 704.25,328.74 704.25,318.83 
		714.19,318.83 714.19,328.74 720.1,328.74 720.1,303.08 714.19,303.08 	"/>
	<path class="st0" d="M736.94,302.71c-1.99,0-3.81,0.33-5.44,0.98c-1.63,0.65-2.95,1.56-3.96,2.73l3.93,3.31
		c0.76-0.58,1.62-1.02,2.57-1.32c0.96-0.3,1.93-0.46,2.92-0.46c1.55,0,2.75,0.4,3.6,1.19c0.85,0.79,1.27,1.9,1.27,3.34v1.09h-6.65
		c-2.97,0-5.19,0.63-6.68,1.89c-1.48,1.26-2.23,3.17-2.23,5.72c0,2.69,0.74,4.68,2.21,5.98c1.48,1.3,3.68,1.95,6.61,1.95
		c1.14,0,2.2-0.13,3.19-0.4c0.99-0.26,1.84-0.66,2.56-1.2c0.39-0.29,0.71-0.64,0.98-1.02v2.25h5.46v-16.49
		c0-3.03-0.9-5.38-2.71-7.05C742.78,303.54,740.23,302.71,736.94,302.71z M740.45,323.72c-0.92,0.41-2.32,0.62-4.18,0.62
		c-1.53,0-2.68-0.26-3.44-0.78c-0.76-0.52-1.14-1.31-1.14-2.39c0-1.02,0.29-1.78,0.88-2.27c0.59-0.49,1.46-0.74,2.63-0.74h6.63v3.63
		C741.83,322.67,741.37,323.31,740.45,323.72z"/>
	<path class="st0" d="M778.15,302.71c-3.45,0-6.11,0.96-8,2.89c-1.89,1.93-2.83,4.65-2.83,8.16v4.18c0,3.54,0.94,6.29,2.83,8.25
		c1.89,1.95,4.55,2.93,8,2.93c3.44,0,6.11-0.97,8-2.91c1.89-1.94,2.83-4.67,2.83-8.2v-4.25c0-3.51-0.94-6.23-2.83-8.16
		C784.26,303.67,781.6,302.71,778.15,302.71z M783.07,318.01c0,1.71-0.43,3.05-1.29,4.01c-0.86,0.96-2.07,1.43-3.63,1.43
		c-1.55,0-2.76-0.48-3.62-1.43c-0.87-0.96-1.3-2.29-1.3-4.01v-4.25c0-1.71,0.43-3.04,1.3-3.98c0.87-0.94,2.07-1.41,3.62-1.41
		c1.57,0,2.78,0.47,3.63,1.41c0.86,0.94,1.29,2.27,1.29,3.98V318.01z"/>
	<path class="st0" d="M816.53,323.33v-20.25h-3.73h-2.18h-6.85h-2.87h-3.02v12.73c0,1.66-0.08,3.06-0.23,4.18
		c-0.16,1.12-0.47,1.96-0.94,2.51c-0.47,0.55-1.19,0.83-2.16,0.83h-0.59h-0.91v5.41v6.45h5.54v-6.45h12.04h4.38v6.45h5.54v-11.87
		h-2.55H816.53z M802.31,323.33c0.97-1.42,1.46-3.36,1.46-5.84v-9h6.85v14.84H802.31z"/>
	<polygon class="st0" points="842.17,313.44 832.23,313.44 832.23,303.08 826.32,303.08 826.32,328.74 832.23,328.74 832.23,318.83 
		842.17,318.83 842.17,328.74 848.08,328.74 848.08,303.08 842.17,303.08 	"/>
	<path class="st0" d="M865.58,302.71c-3.45,0-6.11,0.96-8,2.89c-1.89,1.93-2.83,4.65-2.83,8.16v4.18c0,3.54,0.94,6.29,2.83,8.25
		c1.89,1.95,4.55,2.93,8,2.93c3.44,0,6.11-0.97,8-2.91c1.89-1.94,2.83-4.67,2.83-8.2v-4.25c0-3.51-0.94-6.23-2.83-8.16
		C871.69,303.67,869.03,302.71,865.58,302.71z M870.5,318.01c0,1.71-0.43,3.05-1.29,4.01c-0.86,0.96-2.07,1.43-3.63,1.43
		c-1.55,0-2.76-0.48-3.62-1.43c-0.87-0.96-1.3-2.29-1.3-4.01v-4.25c0-1.71,0.43-3.04,1.3-3.98c0.87-0.94,2.07-1.41,3.62-1.41
		c1.57,0,2.78,0.47,3.63,1.41c0.86,0.94,1.29,2.27,1.29,3.98V318.01z"/>
	<polygon class="st0" points="895.4,317.15 888.35,303.08 883.09,303.08 883.09,328.74 888.43,328.74 888.43,313.32 893.64,323.75 
		897.16,323.75 902.37,313.32 902.37,328.74 907.71,328.74 907.71,303.08 902.45,303.08 	"/>
	<path class="st0" d="M935.41,309.88c1-1.01,2.42-1.51,4.25-1.51c1,0,1.96,0.19,2.87,0.57c0.91,0.38,1.69,0.92,2.35,1.63l4.01-3.76
		c-0.99-1.32-2.31-2.33-3.97-3.04s-3.51-1.06-5.58-1.06c-3.61,0-6.4,0.99-8.38,2.98c-1.98,1.99-2.97,4.79-2.97,8.42v3.49
		c0,3.66,0.99,6.49,2.98,8.51c1.99,2.01,4.78,3.02,8.37,3.02c2.04,0,3.9-0.35,5.56-1.05c1.66-0.7,2.99-1.69,3.98-2.98l-4.01-4.01
		c-0.66,0.76-1.44,1.34-2.35,1.76c-0.91,0.41-1.86,0.62-2.87,0.62c-1.83,0-3.25-0.51-4.25-1.53c-1.01-1.02-1.51-2.46-1.51-4.33
		v-3.49C933.9,312.29,934.4,310.88,935.41,309.88z"/>
	<path class="st0" d="M963.37,302.71c-1.99,0-3.81,0.33-5.44,0.98c-1.63,0.65-2.95,1.56-3.96,2.73l3.93,3.31
		c0.76-0.58,1.62-1.02,2.57-1.32c0.96-0.3,1.93-0.46,2.92-0.46c1.55,0,2.75,0.4,3.6,1.19c0.85,0.79,1.27,1.9,1.27,3.34v1.09h-6.65
		c-2.97,0-5.19,0.63-6.68,1.89s-2.23,3.17-2.23,5.72c0,2.69,0.74,4.68,2.21,5.98c1.48,1.3,3.68,1.95,6.61,1.95
		c1.14,0,2.2-0.13,3.19-0.4c0.99-0.26,1.84-0.66,2.56-1.2c0.39-0.29,0.72-0.64,0.98-1.02v2.25h5.46v-16.49
		c0-3.03-0.9-5.38-2.71-7.05C969.22,303.54,966.67,302.71,963.37,302.71z M966.88,323.72c-0.92,0.41-2.32,0.62-4.18,0.62
		c-1.53,0-2.68-0.26-3.44-0.78c-0.76-0.52-1.14-1.31-1.14-2.39c0-1.02,0.29-1.78,0.88-2.27c0.59-0.49,1.46-0.74,2.63-0.74h6.63v3.63
		C968.27,322.67,967.8,323.31,966.88,323.72z"/>
	<path class="st0" d="M991.48,298.58h0.45c2.59,0,4.52-0.78,5.81-2.34c1.29-1.56,1.93-3.89,1.93-7.01h-4.8
		c0,3.28-0.98,4.92-2.94,4.92h-0.45c-1.96,0-2.94-1.64-2.94-4.92h-4.8c0,3.12,0.65,5.45,1.94,7.01
		C986.98,297.8,988.91,298.58,991.48,298.58z"/>
	<polygon class="st0" points="986.64,319.56 986.64,303.08 980.9,303.08 980.9,328.72 986.02,328.72 996.77,312.64 996.77,328.72 
		1002.51,328.72 1002.51,303.08 997.44,303.08 	"/>
	<polygon class="st0" points="1006.96,308.62 1014.23,308.62 1014.23,328.74 1020.11,328.74 1020.11,308.62 1027.38,308.62 
		1027.38,303.08 1006.96,303.08 	"/>
	<path class="st0" d="M1042.14,302.71c-3.51,0-6.23,1.05-8.16,3.14c-1.93,2.09-2.89,5.05-2.89,8.88v2.89c0,3.68,1,6.51,3.02,8.51
		c2.01,1.99,4.84,2.99,8.48,2.99c1.65,0,3.28-0.33,4.91-1c1.62-0.67,3.09-1.61,4.39-2.83l-3.86-3.61c-0.76,0.66-1.61,1.17-2.56,1.54
		c-0.95,0.37-1.91,0.56-2.88,0.56c-1.91,0-3.4-0.52-4.45-1.57c-0.94-0.93-1.44-2.24-1.54-3.89h15.95v-1.68
		c0-4.42-0.91-7.84-2.72-10.27C1048.02,303.92,1045.46,302.71,1042.14,302.71z M1036.59,313.98c0.07-1.81,0.54-3.24,1.44-4.27
		c0.98-1.11,2.35-1.67,4.12-1.67c1.42,0,2.55,0.5,3.39,1.5c0.84,1,1.34,2.39,1.51,4.17l0.02,0.27H1036.59z"/>
	<path class="st0" d="M1079.26,309.88c1-1.01,2.42-1.51,4.25-1.51c1,0,1.96,0.19,2.87,0.57c0.91,0.38,1.69,0.92,2.35,1.63l4.01-3.76
		c-0.99-1.32-2.31-2.33-3.97-3.04s-3.52-1.06-5.58-1.06c-3.61,0-6.4,0.99-8.38,2.98c-1.98,1.99-2.97,4.79-2.97,8.42v3.49
		c0,3.66,0.99,6.49,2.98,8.51s4.78,3.02,8.37,3.02c2.04,0,3.9-0.35,5.56-1.05c1.66-0.7,2.99-1.69,3.98-2.98l-4.01-4.01
		c-0.66,0.76-1.44,1.34-2.35,1.76c-0.91,0.41-1.86,0.62-2.87,0.62c-1.83,0-3.25-0.51-4.25-1.53c-1.01-1.02-1.51-2.46-1.51-4.33
		v-3.49C1077.75,312.29,1078.25,310.88,1079.26,309.88z"/>
	<path class="st0" d="M1123.64,302.71c-1.45,0-2.77,0.41-3.96,1.22c-0.93,0.64-1.72,1.49-2.37,2.55v-3.41h-5.91v36.1h5.91v-13.72
		c0.53,1.04,1.25,1.89,2.18,2.51c1.14,0.77,2.48,1.15,4.03,1.15c2.79,0,4.94-0.94,6.47-2.81c1.53-1.87,2.29-4.51,2.29-7.92v-4.85
		c0-3.44-0.75-6.11-2.25-8C1128.52,303.65,1126.39,302.71,1123.64,302.71z M1126.36,318.38c0,1.68-0.4,2.99-1.21,3.92
		c-0.81,0.93-1.95,1.4-3.41,1.4c-0.94,0-1.74-0.18-2.4-0.54c-0.66-0.36-1.16-0.89-1.51-1.57c-0.35-0.68-0.52-1.51-0.52-2.48v-6.38
		c0-0.99,0.17-1.83,0.52-2.51c0.35-0.68,0.85-1.2,1.51-1.56c0.66-0.35,1.46-0.53,2.4-0.53c1.47,0,2.6,0.47,3.41,1.42
		c0.81,0.95,1.21,2.29,1.21,4.02V318.38z"/>
	<path class="st0" d="M1148.36,302.71c-1.99,0-3.81,0.33-5.44,0.98c-1.63,0.65-2.95,1.56-3.96,2.73l3.93,3.31
		c0.76-0.58,1.61-1.02,2.57-1.32c0.96-0.3,1.93-0.46,2.92-0.46c1.55,0,2.75,0.4,3.6,1.19c0.85,0.79,1.27,1.9,1.27,3.34v1.09h-6.65
		c-2.97,0-5.19,0.63-6.68,1.89s-2.23,3.17-2.23,5.72c0,2.69,0.74,4.68,2.21,5.98c1.48,1.3,3.68,1.95,6.61,1.95
		c1.14,0,2.2-0.13,3.19-0.4c0.99-0.26,1.84-0.66,2.56-1.2c0.39-0.29,0.72-0.64,0.98-1.02v2.25h5.46v-16.49
		c0-3.03-0.9-5.38-2.71-7.05C1154.21,303.54,1151.66,302.71,1148.36,302.71z M1151.88,323.72c-0.92,0.41-2.32,0.62-4.18,0.62
		c-1.53,0-2.68-0.26-3.44-0.78c-0.76-0.52-1.14-1.31-1.14-2.39c0-1.02,0.29-1.78,0.88-2.27s1.46-0.74,2.63-0.74h6.63v3.63
		C1153.26,322.67,1152.8,323.31,1151.88,323.72z"/>
	<path class="st0" d="M1179.32,315.52c1.24-0.48,2.19-1.22,2.87-2.23c0.68-1.01,1.01-2.18,1.01-3.54v-0.02
		c0-2.23-0.78-3.95-2.35-5.18c-1.57-1.23-3.79-1.84-6.68-1.84c-2.69,0-4.9,0.7-6.64,2.11c-1.74,1.41-2.86,3.41-3.37,6h5.74
		c0.26-0.96,0.76-1.7,1.48-2.23c0.72-0.53,1.62-0.79,2.67-0.79c1.12,0,1.98,0.25,2.58,0.75c0.6,0.5,0.9,1.22,0.9,2.14v0.02
		c0,0.86-0.21,1.53-0.64,2c-0.43,0.48-1.03,0.72-1.81,0.72h-3.44v4.97h3.44c1,0,1.78,0.22,2.34,0.65c0.55,0.44,0.83,1.04,0.83,1.82
		v0.02c0,0.96-0.35,1.69-1.05,2.21c-0.7,0.52-1.7,0.78-3,0.78c-1.15,0-2.1-0.25-2.83-0.75c-0.73-0.5-1.18-1.22-1.35-2.14h-5.76
		c0.36,2.59,1.42,4.59,3.16,6c1.75,1.41,4.02,2.11,6.82,2.11c3.07,0,5.44-0.68,7.13-2.04c1.69-1.36,2.53-3.28,2.53-5.77v-0.02
		c0-1.62-0.4-2.93-1.2-3.93C1181.92,316.34,1180.79,315.73,1179.32,315.52z"/>
	<polygon class="st0" points="1205.83,313.44 1195.89,313.44 1195.89,303.08 1189.98,303.08 1189.98,328.74 1195.89,328.74 
		1195.89,318.83 1205.83,318.83 1205.83,328.74 1211.74,328.74 1211.74,303.08 1205.83,303.08 	"/>
	<path class="st0" d="M1229.46,311.36h-4.4v-8.28h-5.91v25.66h2.08h3.83h4.4c2.7,0,4.87-0.8,6.5-2.39c1.63-1.59,2.45-3.69,2.45-6.29
		c-0.02-2.62-0.84-4.73-2.47-6.32C1234.31,312.16,1232.15,311.36,1229.46,311.36z M1231.61,322.2c-0.54,0.59-1.28,0.88-2.2,0.88
		h-4.35v-6.43h4.35c0.91,0,1.64,0.3,2.19,0.89s0.83,1.38,0.83,2.35C1232.43,320.85,1232.16,321.62,1231.61,322.2z"/>
	<rect x="1241.73" y="303.08" class="st0" width="5.88" height="25.66"/>
	<polygon class="st0" points="1274.59,303.08 1268.06,303.08 1263.39,311.26 1258.32,303.08 1251.79,303.08 1260.13,315.57 
		1251.39,328.74 1257.77,328.74 1263.24,320.39 1268.48,328.74 1274.98,328.74 1266.46,316.05 	"/>
	<polygon class="st0" points="1305.96,317.15 1298.92,303.08 1293.65,303.08 1293.65,328.74 1298.99,328.74 1298.99,313.32 
		1304.21,323.75 1307.72,323.75 1312.94,313.32 1312.94,328.74 1318.28,328.74 1318.28,303.08 1313.01,303.08 	"/>
	<path class="st0" d="M1334.14,319.67l-6.14-16.59h-5.76l9.26,24.51l-1.29,3.87c-0.35,0.82-0.78,1.41-1.3,1.76
		c-0.52,0.35-1.19,0.52-2.01,0.52h-1.26v5.71h1.26c2.01,0,3.59-0.34,4.73-1.03c1.15-0.68,2.03-1.91,2.66-3.67l11.18-31.67h-5.76
		L1334.14,319.67z"/>
	<path class="st0" d="M1362.83,315.52c1.24-0.48,2.19-1.22,2.87-2.23c0.68-1.01,1.01-2.18,1.01-3.54v-0.02
		c0-2.23-0.78-3.95-2.35-5.18c-1.57-1.23-3.79-1.84-6.68-1.84c-2.69,0-4.9,0.7-6.64,2.11s-2.86,3.41-3.37,6h5.74
		c0.26-0.96,0.76-1.7,1.48-2.23c0.72-0.53,1.62-0.79,2.67-0.79c1.12,0,1.98,0.25,2.58,0.75c0.6,0.5,0.9,1.22,0.9,2.14v0.02
		c0,0.86-0.21,1.53-0.64,2c-0.43,0.48-1.03,0.72-1.8,0.72h-3.44v4.97h3.44c1,0,1.78,0.22,2.34,0.65c0.55,0.44,0.83,1.04,0.83,1.82
		v0.02c0,0.96-0.35,1.69-1.05,2.21c-0.7,0.52-1.7,0.78-3,0.78c-1.15,0-2.1-0.25-2.83-0.75c-0.73-0.5-1.18-1.22-1.35-2.14h-5.76
		c0.36,2.59,1.42,4.59,3.16,6c1.75,1.41,4.02,2.11,6.82,2.11c3.07,0,5.44-0.68,7.13-2.04c1.69-1.36,2.53-3.28,2.53-5.77v-0.02
		c0-1.62-0.4-2.93-1.2-3.93C1365.43,316.34,1364.3,315.73,1362.83,315.52z"/>
	<rect x="1396.06" y="303.08" class="st0" width="5.88" height="25.66"/>
	<path class="st0" d="M1383.8,311.36h-4.4v-8.28h-5.91v25.66h2.08h3.83h4.4c2.7,0,4.87-0.8,6.5-2.39c1.63-1.59,2.45-3.69,2.45-6.29
		c-0.02-2.62-0.84-4.73-2.47-6.32C1388.64,312.16,1386.48,311.36,1383.8,311.36z M1385.95,322.2c-0.54,0.59-1.28,0.88-2.2,0.88
		h-4.35v-6.43h4.35c0.91,0,1.64,0.3,2.19,0.89c0.55,0.59,0.83,1.38,0.83,2.35C1386.76,320.85,1386.49,321.62,1385.95,322.2z"/>
	<polygon class="st0" points="1430.03,303.08 1423.46,303.08 1418.21,313.07 1414.85,313.07 1414.85,303.08 1408.94,303.08 
		1408.94,328.74 1414.85,328.74 1414.85,318.71 1418.29,318.71 1424.3,328.74 1431.54,328.74 1423.01,315.54 	"/>
	<path class="st0" d="M1444.42,302.71c-1.99,0-3.81,0.33-5.44,0.98c-1.63,0.65-2.95,1.56-3.96,2.73l3.93,3.31
		c0.76-0.58,1.61-1.02,2.57-1.32c0.96-0.3,1.93-0.46,2.92-0.46c1.55,0,2.75,0.4,3.6,1.19c0.85,0.79,1.27,1.9,1.27,3.34v1.09h-6.65
		c-2.97,0-5.19,0.63-6.68,1.89s-2.23,3.17-2.23,5.72c0,2.69,0.74,4.68,2.21,5.98s3.68,1.95,6.61,1.95c1.14,0,2.2-0.13,3.19-0.4
		c0.99-0.26,1.84-0.66,2.56-1.2c0.39-0.29,0.72-0.64,0.98-1.02v2.25h5.46v-16.49c0-3.03-0.9-5.38-2.71-7.05
		C1450.27,303.54,1447.72,302.71,1444.42,302.71z M1447.94,323.72c-0.92,0.41-2.32,0.62-4.18,0.62c-1.53,0-2.68-0.26-3.44-0.78
		c-0.76-0.52-1.14-1.31-1.14-2.39c0-1.02,0.29-1.78,0.88-2.27c0.59-0.49,1.46-0.74,2.63-0.74h6.63v3.63
		C1449.32,322.67,1448.86,323.31,1447.94,323.72z"/>
	<path class="st0" d="M1477.09,303.08h-7.37h-2.3h-3.39v14.81c0,1.71-0.33,3.05-1,3.99c-0.67,0.95-1.6,1.42-2.81,1.42v5.66h0.49
		c2.87,0,5.08-0.91,6.65-2.72c1.57-1.81,2.35-4.37,2.35-7.66v-9.84h7.37v20h5.91v-25.66h-2.62H1477.09z"/>
	<path class="st0" d="M1502.21,311.36h-5.88v-8.28h-5.91v25.66h2.94h2.97h5.88c2.7,0,4.87-0.8,6.5-2.39
		c1.63-1.59,2.45-3.69,2.45-6.29c-0.02-2.62-0.84-4.73-2.47-6.32C1507.05,312.16,1504.89,311.36,1502.21,311.36z M1504.36,322.2
		c-0.54,0.59-1.28,0.88-2.2,0.88h-5.84v-6.43h5.84c0.91,0,1.64,0.3,2.19,0.89c0.55,0.59,0.83,1.38,0.83,2.35
		C1505.17,320.85,1504.9,321.62,1504.36,322.2z"/>
	<polygon class="st0" points="1533.06,313.44 1523.12,313.44 1523.12,303.08 1517.22,303.08 1517.22,328.74 1523.12,328.74 
		1523.12,318.83 1533.06,318.83 1533.06,328.74 1538.97,328.74 1538.97,303.08 1533.06,303.08 	"/>
	<rect x="1568.96" y="303.08" class="st0" width="5.88" height="25.66"/>
	<path class="st0" d="M1556.7,311.36h-4.4v-8.28h-5.91v25.66h2.08h3.83h4.4c2.7,0,4.87-0.8,6.5-2.39c1.63-1.59,2.45-3.69,2.45-6.29
		c-0.02-2.62-0.84-4.73-2.47-6.32C1561.55,312.16,1559.39,311.36,1556.7,311.36z M1558.85,322.2c-0.54,0.59-1.28,0.88-2.2,0.88
		h-4.35v-6.43h4.35c0.91,0,1.64,0.3,2.19,0.89c0.55,0.59,0.83,1.38,0.83,2.35C1559.67,320.85,1559.4,321.62,1558.85,322.2z"/>
	<polygon class="st0" points="1601.82,303.08 1595.3,303.08 1590.63,311.26 1585.56,303.08 1579.03,303.08 1587.37,315.57 
		1578.63,328.74 1585.01,328.74 1590.48,320.39 1595.72,328.74 1602.22,328.74 1593.7,316.05 	"/>
	<polygon class="st0" points="1636.74,303.08 1626.8,303.08 1624.28,303.08 1620.89,303.08 1620.89,328.74 1626.8,328.74 
		1626.8,308.74 1636.74,308.74 1636.74,328.74 1642.65,328.74 1642.65,303.08 1640.03,303.08 	"/>
	<path class="st0" d="M1665.2,303.08h-7.37h-2.3h-3.39v14.81c0,1.71-0.33,3.05-1,3.99c-0.67,0.95-1.6,1.42-2.81,1.42v5.66h0.49
		c2.87,0,5.08-0.91,6.65-2.72c1.57-1.81,2.35-4.37,2.35-7.66v-9.84h7.37v20h5.91v-25.66h-2.62H1665.2z"/>
	<path class="st0" d="M1688.61,302.71c-3.45,0-6.11,0.96-8,2.89c-1.89,1.93-2.83,4.65-2.83,8.16v4.18c0,3.54,0.94,6.29,2.83,8.25
		c1.89,1.95,4.55,2.93,8,2.93c3.44,0,6.11-0.97,8-2.91c1.89-1.94,2.83-4.67,2.83-8.2v-4.25c0-3.51-0.94-6.23-2.83-8.16
		C1694.72,303.67,1692.06,302.71,1688.61,302.71z M1693.53,318.01c0,1.71-0.43,3.05-1.29,4.01c-0.86,0.96-2.07,1.43-3.63,1.43
		c-1.55,0-2.76-0.48-3.62-1.43c-0.87-0.96-1.3-2.29-1.3-4.01v-4.25c0-1.71,0.43-3.04,1.3-3.98c0.87-0.94,2.07-1.41,3.62-1.41
		c1.57,0,2.78,0.47,3.63,1.41c0.86,0.94,1.29,2.27,1.29,3.98V318.01z"/>
	<polygon class="st0" points="1737.54,303.08 1731.66,303.08 1731.66,323.21 1724.73,323.21 1724.73,303.08 1718.85,303.08 
		1718.85,323.21 1711.93,323.21 1711.93,303.08 1706.02,303.08 1706.02,328.74 1709.4,328.74 1711.93,328.74 1718.85,328.74 
		1724.73,328.74 1731.66,328.74 1734.45,328.74 1736.13,328.74 1736.13,335.2 1742.02,335.2 1742.02,323.21 1737.54,323.21 	"/>
	<path class="st0" d="M1757.12,302.71c-1.99,0-3.81,0.33-5.44,0.98c-1.63,0.65-2.95,1.56-3.96,2.73l3.93,3.31
		c0.76-0.58,1.62-1.02,2.57-1.32c0.96-0.3,1.93-0.46,2.92-0.46c1.55,0,2.75,0.4,3.6,1.19c0.85,0.79,1.27,1.9,1.27,3.34v1.09h-6.65
		c-2.97,0-5.19,0.63-6.68,1.89c-1.48,1.26-2.23,3.17-2.23,5.72c0,2.69,0.74,4.68,2.21,5.98s3.68,1.95,6.61,1.95
		c1.14,0,2.2-0.13,3.19-0.4c0.99-0.26,1.84-0.66,2.56-1.2c0.39-0.29,0.71-0.64,0.98-1.02v2.25h5.46v-16.49
		c0-3.03-0.9-5.38-2.71-7.05C1762.97,303.54,1760.42,302.71,1757.12,302.71z M1760.63,323.72c-0.92,0.41-2.32,0.62-4.18,0.62
		c-1.53,0-2.68-0.26-3.44-0.78c-0.76-0.52-1.14-1.31-1.14-2.39c0-1.02,0.29-1.78,0.88-2.27c0.59-0.49,1.46-0.74,2.63-0.74h6.63v3.63
		C1762.02,322.67,1761.56,323.31,1760.63,323.72z"/>
	<path class="st0" d="M1796.76,323.33v-20.25h-3.73h-2.18H1784h-2.87h-3.02v12.73c0,1.66-0.08,3.06-0.24,4.18
		c-0.16,1.12-0.47,1.96-0.94,2.51c-0.47,0.55-1.19,0.83-2.16,0.83h-0.59h-0.91v5.41v6.45h5.54v-6.45h12.04h4.38v6.45h5.54v-11.87
		h-2.55H1796.76z M1782.54,323.33c0.97-1.42,1.46-3.36,1.46-5.84v-9h6.85v14.84H1782.54z"/>
	<path class="st0" d="M1815.9,302.71c-3.45,0-6.11,0.96-8,2.89c-1.89,1.93-2.83,4.65-2.83,8.16v4.18c0,3.54,0.94,6.29,2.83,8.25
		c1.89,1.95,4.55,2.93,8,2.93c3.44,0,6.11-0.97,8-2.91c1.89-1.94,2.83-4.67,2.83-8.2v-4.25c0-3.51-0.94-6.23-2.83-8.16
		C1822.01,303.67,1819.34,302.71,1815.9,302.71z M1820.82,318.01c0,1.71-0.43,3.05-1.29,4.01c-0.86,0.96-2.07,1.43-3.63,1.43
		c-1.55,0-2.76-0.48-3.62-1.43c-0.87-0.96-1.3-2.29-1.3-4.01v-4.25c0-1.71,0.43-3.04,1.3-3.98c0.86-0.94,2.07-1.41,3.62-1.41
		c1.56,0,2.78,0.47,3.63,1.41c0.86,0.94,1.29,2.27,1.29,3.98V318.01z"/>
	<polygon class="st0" points="1848.76,328.74 1856,328.74 1847.47,315.54 1854.49,303.08 1847.91,303.08 1842.67,313.07 
		1839.31,313.07 1839.31,303.08 1833.4,303.08 1833.4,328.74 1839.31,328.74 1839.31,318.71 1842.75,318.71 	"/>
</g>
<g>
	<path class="st1" d="M507.97,86.99v9.86c0,7.43-2.23,13.19-6.69,17.28c-4.46,4.09-10.75,6.13-18.86,6.13
		c-6.97,0-12.38-1.89-16.21-5.66c-3.83-3.77-5.74-9.12-5.74-16.03V51.84h-17.49v46.13c0,12.58,3.29,22.31,9.86,29.2
		c6.57,6.89,15.86,10.33,27.87,10.33c10.4,0,18.46-3.6,24.18-10.8c1.15-1.44,2.17-3.01,3.09-4.69v54.51h17.49V51.84h-17.49V86.99z"
		/>
	<polygon class="st1" points="550.33,103.29 576.14,103.29 576.14,176.51 593.63,176.51 593.63,103.29 619.44,103.29 619.44,87.51 
		550.33,87.51 	"/>
	<path class="st1" d="M670.71,86.22c-11.66,0-20.69,3.34-27.1,10.03c-6.4,6.69-9.6,16.12-9.6,28.3v14.49c0,12.29,3.2,21.82,9.6,28.6
		c6.4,6.77,15.43,10.16,27.1,10.16s20.69-3.36,27.1-10.07c6.4-6.72,9.6-16.19,9.6-28.42v-14.75c0-12.18-3.2-21.61-9.6-28.3
		C691.41,89.57,682.37,86.22,670.71,86.22z M689.92,139.3c0,6.92-1.67,12.29-5.02,16.12c-3.34,3.83-8.07,5.74-14.19,5.74
		c-6.06,0-10.78-1.91-14.15-5.74c-3.37-3.83-5.06-9.2-5.06-16.12v-14.75c0-6.92,1.69-12.26,5.06-16.03
		c3.37-3.77,8.09-5.66,14.15-5.66c6.12,0,10.85,1.89,14.19,5.66c3.34,3.77,5.02,9.12,5.02,16.03V139.3z"/>
	<polygon class="st1" points="775.15,103.29 800.96,103.29 800.96,176.51 818.45,176.51 818.45,103.29 844.26,103.29 844.26,87.51 
		775.15,87.51 	"/>
	<path class="st1" d="M925.12,94.88c-6.12-5.77-14.75-8.66-25.89-8.66c-6.75,0-12.88,1.13-18.39,3.39
		c-5.52,2.26-9.96,5.42-13.33,9.47l12.78,8.75c2.69-2,5.73-3.53,9.13-4.59c3.4-1.06,6.84-1.59,10.33-1.59
		c5.72,0,10.13,1.62,13.25,4.84c3.12,3.23,4.67,7.76,4.67,13.59v3.77h-24.52c-10,0-17.51,2.19-22.51,6.56
		c-5,4.37-7.5,10.99-7.5,19.85c0,9.32,2.73,16.24,8.19,20.75c5.46,4.52,13.65,6.77,24.57,6.77c3.72,0,7.04-0.39,9.99-1.16
		c2.94-0.77,5.56-1.93,7.85-3.47c1.47-1,2.78-2.19,3.94-3.54v6.89h16.63v-57.19C934.29,108.8,931.23,100.66,925.12,94.88z
		 M912.68,161.42c-3.32,1.43-8.29,2.14-14.92,2.14c-6.06,0-10.6-1.09-13.63-3.26c-3.03-2.17-4.54-5.52-4.54-10.03
		c0-4.17,1.14-7.27,3.43-9.3c2.29-2.03,5.69-3.04,10.2-3.04h24.44v16.81C917.66,157.76,916,159.99,912.68,161.42z"/>
	<polygon class="st1" points="1032.3,87.51 1011.2,87.51 988.17,123.61 978.36,123.61 978.36,87.51 960.87,87.51 960.87,176.51 
		978.36,176.51 978.36,140.24 988.7,140.24 1014.12,176.51 1037.53,176.51 1002.03,130.72 	"/>
	<path class="st1" d="M1082.8,86.22c-11.66,0-20.69,3.34-27.1,10.03c-6.4,6.69-9.6,16.12-9.6,28.3v14.49c0,12.29,3.2,21.82,9.6,28.6
		c6.4,6.77,15.43,10.16,27.1,10.16s20.69-3.36,27.1-10.07c6.4-6.72,9.6-16.19,9.6-28.42v-14.75c0-12.18-3.2-21.61-9.6-28.3
		C1103.49,89.57,1094.46,86.22,1082.8,86.22z M1102.01,139.3c0,6.92-1.67,12.29-5.02,16.12c-3.34,3.83-8.07,5.74-14.19,5.74
		c-6.06,0-10.78-1.91-14.15-5.74c-3.37-3.83-5.06-9.2-5.06-16.12v-14.75c0-6.92,1.69-12.26,5.06-16.03
		c3.37-3.77,8.09-5.66,14.15-5.66c6.12,0,10.85,1.89,14.19,5.66s5.02,9.12,5.02,16.03V139.3z"/>
	<path class="st1" d="M1179.26,86.22c-11.89,0-21.11,3.63-27.65,10.89c-6.55,7.26-9.82,17.52-9.82,30.78v10.03
		c0,12.75,3.4,22.58,10.2,29.5c6.8,6.92,16.41,10.38,28.81,10.38c5.54,0,11.06-1.16,16.55-3.47c5.49-2.32,10.43-5.59,14.83-9.82
		l-11.49-11.49c-2.74,2.57-5.86,4.57-9.35,6c-3.49,1.43-7,2.14-10.55,2.14c-7.09,0-12.59-1.97-16.51-5.92
		c-3.78-3.8-5.71-9.22-5.85-16.21h56.05v-5.83c0-14.86-3.07-26.41-9.22-34.64C1199.14,90.34,1190.47,86.22,1179.26,86.22z
		 M1158.48,124.98c0.29-6.99,2.08-12.49,5.43-16.46c3.66-4.34,8.77-6.52,15.35-6.52c5.43,0,9.76,2.03,12.99,6.09
		c3.23,4.06,5.1,9.69,5.62,16.89H1158.48z"/>
	<path class="st1" d="M1440.54,59.79c-5.66-5.57-13.63-8.36-23.92-8.36c-9.83,0-17.56,3.12-23.19,9.35
		c-5.63,6.23-8.65,15.03-9.05,26.41v0.09h17.75v-0.09c0.06-6.23,1.36-11.05,3.9-14.45c2.54-3.4,6.13-5.1,10.76-5.1
		c4.57,0,8.13,1.37,10.68,4.12c2.54,2.74,3.82,6.6,3.82,11.58v0.09c0,4.17-0.83,7.9-2.49,11.19c-1.66,3.29-3.7,6.5-6.13,9.65
		c-2.43,3.14-4.87,6.57-7.33,10.29c-2.46,3.72-4.52,8.05-6.17,12.99c-1.66,4.94-2.49,10.9-2.49,17.88h17.49c0-5.37,0.6-10,1.8-13.89
		c1.2-3.89,2.74-7.34,4.63-10.38c1.89-3.03,3.89-5.86,6-8.49c2.11-2.63,4.12-5.32,6-8.06c1.89-2.74,3.43-5.82,4.63-9.22
		c1.2-3.4,1.8-7.36,1.8-11.88v-0.09C1449.02,73.24,1446.2,65.37,1440.54,59.79z"/>
	<rect x="1406.24" y="159.04" class="st1" width="18.35" height="18.35"/>
	<polygon class="st1" points="1301.81,136.63 1315.54,181 1360.12,92.32 1238.4,102.72 	"/>
</g>
</svg>
