<?xml version="1.0" encoding="utf-8"?>
<!-- Generator: Adobe Illustrator 26.0.1, SVG Export Plug-In . SVG Version: 6.00 Build 0)  -->
<svg version="1.1" id="Слой_1" xmlns="http://www.w3.org/2000/svg" xmlns:xlink="http://www.w3.org/1999/xlink" x="0px" y="0px"
	 viewBox="0 0 1892 380" style="enable-background:new 0 0 1892 380;" xml:space="preserve">
<style type="text/css">
	.st0{fill:#FFF03B;}
</style>
<g>
	<path class="st0" d="M508,87v9.9c0,7.4-2.2,13.2-6.7,17.3c-4.5,4.1-10.8,6.1-18.9,6.1c-7,0-12.4-1.9-16.2-5.7
		c-3.8-3.8-5.7-9.1-5.7-16V51.8H443V98c0,12.6,3.3,22.3,9.9,29.2c6.6,6.9,15.9,10.3,27.9,10.3c10.4,0,18.5-3.6,24.2-10.8
		c1.1-1.4,2.2-3,3.1-4.7v54.5h17.5V51.8H508L508,87L508,87z"/>
	<polygon class="st0" points="550.3,103.3 576.1,103.3 576.1,176.5 593.6,176.5 593.6,103.3 619.4,103.3 619.4,87.5 550.3,87.5 	"/>
	<path class="st0" d="M670.7,86.2c-11.7,0-20.7,3.3-27.1,10c-6.4,6.7-9.6,16.1-9.6,28.3V139c0,12.3,3.2,21.8,9.6,28.6
		c6.4,6.8,15.4,10.2,27.1,10.2s20.7-3.4,27.1-10.1c6.4-6.7,9.6-16.2,9.6-28.4v-14.8c0-12.2-3.2-21.6-9.6-28.3
		C691.4,89.6,682.4,86.2,670.7,86.2z M689.9,139.3c0,6.9-1.7,12.3-5,16.1c-3.3,3.8-8.1,5.7-14.2,5.7c-6.1,0-10.8-1.9-14.2-5.7
		s-5.1-9.2-5.1-16.1v-14.8c0-6.9,1.7-12.3,5.1-16s8.1-5.7,14.2-5.7c6.1,0,10.8,1.9,14.2,5.7c3.3,3.8,5,9.1,5,16V139.3z"/>
	<polygon class="st0" points="775.2,103.3 801,103.3 801,176.5 818.5,176.5 818.5,103.3 844.3,103.3 844.3,87.5 775.2,87.5 	"/>
	<path class="st0" d="M925.1,94.9c-6.1-5.8-14.8-8.7-25.9-8.7c-6.8,0-12.9,1.1-18.4,3.4c-5.5,2.3-10,5.4-13.3,9.5l12.8,8.8
		c2.7-2,5.7-3.5,9.1-4.6s6.8-1.6,10.3-1.6c5.7,0,10.1,1.6,13.2,4.8c3.1,3.2,4.7,7.8,4.7,13.6v3.8h-24.5c-10,0-17.5,2.2-22.5,6.6
		c-5,4.4-7.5,11-7.5,19.9c0,9.3,2.7,16.2,8.2,20.8c5.5,4.5,13.7,6.8,24.6,6.8c3.7,0,7-0.4,10-1.2c2.9-0.8,5.6-1.9,7.8-3.5
		c1.5-1,2.8-2.2,3.9-3.5v6.9h16.6v-57.2C934.3,108.8,931.2,100.7,925.1,94.9z M912.7,161.4c-3.3,1.4-8.3,2.1-14.9,2.1
		c-6.1,0-10.6-1.1-13.6-3.3s-4.5-5.5-4.5-10c0-4.2,1.1-7.3,3.4-9.3s5.7-3,10.2-3h24.4v16.8C917.7,157.8,916,160,912.7,161.4z"/>
	<polygon class="st0" points="1032.3,87.5 1011.2,87.5 988.2,123.6 978.4,123.6 978.4,87.5 960.9,87.5 960.9,176.5 978.4,176.5 
		978.4,140.2 988.7,140.2 1014.1,176.5 1037.5,176.5 1002,130.7 	"/>
	<path class="st0" d="M1082.8,86.2c-11.7,0-20.7,3.3-27.1,10c-6.4,6.7-9.6,16.1-9.6,28.3V139c0,12.3,3.2,21.8,9.6,28.6
		c6.4,6.8,15.4,10.2,27.1,10.2s20.7-3.4,27.1-10.1c6.4-6.7,9.6-16.2,9.6-28.4v-14.8c0-12.2-3.2-21.6-9.6-28.3
		C1103.5,89.6,1094.5,86.2,1082.8,86.2z M1102,139.3c0,6.9-1.7,12.3-5,16.1c-3.3,3.8-8.1,5.7-14.2,5.7c-6.1,0-10.8-1.9-14.2-5.7
		s-5.1-9.2-5.1-16.1v-14.8c0-6.9,1.7-12.3,5.1-16c3.4-3.8,8.1-5.7,14.2-5.7c6.1,0,10.8,1.9,14.2,5.7s5,9.1,5,16V139.3z"/>
	<path class="st0" d="M1179.3,86.2c-11.9,0-21.1,3.6-27.7,10.9c-6.6,7.3-9.8,17.5-9.8,30.8v10c0,12.8,3.4,22.6,10.2,29.5
		c6.8,6.9,16.4,10.4,28.8,10.4c5.5,0,11.1-1.2,16.6-3.5c5.5-2.3,10.4-5.6,14.8-9.8l-11.5-11.5c-2.7,2.6-5.9,4.6-9.3,6
		s-7,2.1-10.6,2.1c-7.1,0-12.6-2-16.5-5.9c-3.8-3.8-5.7-9.2-5.8-16.2h56.1v-5.8c0-14.9-3.1-26.4-9.2-34.6
		C1199.1,90.3,1190.5,86.2,1179.3,86.2z M1158.5,125c0.3-7,2.1-12.5,5.4-16.5c3.7-4.3,8.8-6.5,15.3-6.5c5.4,0,9.8,2,13,6.1
		c3.2,4.1,5.1,9.7,5.6,16.9C1197.9,125,1158.5,125,1158.5,125z"/>
	<path class="st0" d="M1440.5,59.8c-5.7-5.6-13.6-8.4-23.9-8.4c-9.8,0-17.6,3.1-23.2,9.3c-5.6,6.2-8.7,15-9.1,26.4v0.1h17.8v-0.1
		c0.1-6.2,1.4-11.1,3.9-14.4c2.5-3.4,6.1-5.1,10.8-5.1c4.6,0,8.1,1.4,10.7,4.1c2.5,2.7,3.8,6.6,3.8,11.6v0.1c0,4.2-0.8,7.9-2.5,11.2
		s-3.7,6.5-6.1,9.7c-2.4,3.1-4.9,6.6-7.3,10.3s-4.5,8.1-6.2,13c-1.7,4.9-2.5,10.9-2.5,17.9h17.5c0-5.4,0.6-10,1.8-13.9
		c1.2-3.9,2.7-7.3,4.6-10.4c1.9-3,3.9-5.9,6-8.5s4.1-5.3,6-8.1c1.9-2.7,3.4-5.8,4.6-9.2s1.8-7.4,1.8-11.9v-0.1
		C1449,73.2,1446.2,65.4,1440.5,59.8z"/>
	<rect x="1406.2" y="159" class="st0" width="18.3" height="18.4"/>
	<polygon class="st0" points="1301.8,136.6 1315.5,181 1360.1,92.3 1238.4,102.7 	"/>
</g>
</svg>
